<?xml version="1.0" standalone="no"?>
<!DOCTYPE svg PUBLIC "-//W3C//DTD SVG 20010904//EN"
 "http://www.w3.org/TR/2001/REC-SVG-20010904/DTD/svg10.dtd">
<svg version="1.0" xmlns="http://www.w3.org/2000/svg"
 width="481.000000pt" height="481.000000pt" viewBox="0 0 481.000000 481.000000"
 preserveAspectRatio="xMidYMid meet">
<metadata>
Created by potrace 1.14, written by Peter Selinger 2001-2017
</metadata>
<g transform="translate(0.000000,481.000000) scale(0.100000,-0.100000)"
fill="#000000" stroke="none">
<path d="M2260 3707 c-3 -3 -17 -8 -30 -11 -31 -5 -140 -54 -140 -61 0 -3 9
-1 20 5 11 6 20 8 20 5 0 -3 10 1 23 9 12 7 36 17 52 21 17 4 39 10 50 13 11
4 94 7 185 7 167 1 228 -9 319 -48 48 -20 20 -27 -91 -22 -329 16 -381 15
-473 -5 -93 -21 -192 -52 -304 -96 -65 -26 -199 -109 -214 -132 -5 -7 -12 -10
-18 -7 -5 4 -9 2 -9 -4 0 -14 -41 -40 -71 -46 -13 -3 -32 -14 -44 -26 -21 -23
-3 -17 29 10 11 9 16 11 12 4 -3 -7 -21 -22 -38 -35 -17 -12 -28 -17 -24 -10
18 29 -13 8 -58 -40 -77 -83 -205 -287 -220 -350 -8 -36 -3 -35 24 5 12 17 19
23 15 12 -4 -11 -24 -67 -45 -125 -20 -58 -40 -121 -44 -140 -3 -19 7 5 24 54
35 102 80 206 89 206 3 0 14 -7 24 -14 16 -12 17 -18 6 -37 -6 -13 -14 -39
-16 -58 -3 -20 -8 -40 -13 -46 -9 -12 -20 -56 -27 -105 -3 -19 -8 -42 -12 -50
-9 -19 -5 -386 4 -420 3 -14 9 -52 12 -85 2 -33 16 -94 30 -135 13 -41 22 -83
19 -93 -12 -49 115 -268 204 -350 55 -51 120 -103 120 -95 0 2 -40 44 -88 93
-89 91 -141 162 -188 255 -18 36 -23 55 -16 62 7 7 6 18 -5 34 -8 13 -13 24
-10 24 4 0 -2 19 -12 43 -10 23 -21 69 -25 102 -4 33 -12 85 -17 115 -7 36 -7
69 -1 95 6 23 10 31 11 18 1 -12 23 -87 50 -167 75 -223 135 -321 297 -492 23
-24 47 -56 53 -71 7 -16 33 -42 59 -60 94 -63 368 -172 476 -189 68 -11 223
-12 279 -2 28 5 59 11 67 12 33 5 130 43 173 67 10 5 55 28 100 50 45 23 109
59 143 80 33 22 97 52 141 67 113 40 147 63 171 120 11 26 22 61 25 77 11 63
28 130 36 135 13 8 87 206 114 304 20 72 24 108 22 188 -2 73 1 98 10 98 7 0
18 20 24 45 13 52 27 58 36 15 4 -20 17 -36 36 -46 16 -8 27 -19 24 -23 -2 -5
1 -14 8 -20 22 -17 37 52 32 144 -2 44 -6 89 -8 100 -3 11 -8 40 -12 64 -4 24
-18 75 -30 114 -13 40 -22 73 -20 75 2 2 -3 11 -11 20 -16 18 -88 125 -118
175 -10 18 -37 50 -60 72 -22 23 -64 66 -91 96 -59 64 -205 200 -205 192 0 -3
-8 1 -17 9 -23 20 -127 73 -182 93 -23 8 -52 21 -64 30 -12 8 -28 15 -37 15
-8 0 -51 14 -95 32 -78 31 -84 32 -270 36 -104 2 -192 1 -195 -1z m816 -214
c29 -14 81 -55 120 -95 38 -39 58 -65 44 -58 -43 23 -124 77 -149 101 -14 13
-52 38 -85 56 l-61 32 40 -5 c22 -3 63 -17 91 -31z m-585 18 c21 -5 -12 -8
-91 -8 -114 -1 -214 -16 -329 -49 -38 -11 -16 13 23 26 98 32 312 49 397 31z
m508 -62 c7 12 76 -18 121 -52 115 -87 240 -227 203 -227 -5 0 -15 13 -24 29
-9 16 -44 47 -78 70 -36 25 -59 47 -55 53 4 6 3 8 -4 4 -13 -8 -138 72 -134
86 1 5 -2 7 -8 3 -17 -11 -50 14 -43 32 5 12 8 13 11 4 3 -9 7 -10 11 -2z
m-339 -54 c97 -15 157 -44 290 -145 187 -140 330 -294 381 -408 23 -54 24 -83
3 -142 -18 -53 -13 -129 11 -166 15 -23 17 -23 45 -9 16 8 31 15 33 15 3 0 5
-51 6 -112 3 -214 -45 -388 -157 -570 -19 -32 -37 -58 -39 -58 -2 0 -1 6 2 13
7 12 -7 -3 -73 -82 -105 -124 -309 -269 -403 -286 -226 -42 -436 -44 -574 -5
-323 91 -383 118 -494 228 -64 63 -87 95 -116 158 -33 70 -82 192 -89 219 -2
6 -12 30 -24 55 -11 25 -23 65 -27 90 -4 24 -12 60 -19 80 -32 93 -12 322 41
465 51 139 154 304 240 386 31 30 146 109 238 163 31 18 105 43 150 51 22 3
92 17 155 30 204 42 295 49 420 30z m629 -286 c24 -33 42 -62 39 -64 -2 -2
-27 27 -55 65 -29 38 -47 67 -40 64 7 -3 32 -32 56 -65z m35 -5 c3 -8 2 -12
-4 -9 -6 3 -10 10 -10 16 0 14 7 11 14 -7z m192 -339 c9 -40 -9 -22 -25 25
-10 31 -10 33 3 20 8 -8 18 -28 22 -45z m-2129 -487 c-3 -8 -6 -5 -6 6 -1 11
2 17 5 13 3 -3 4 -12 1 -19z m27 -95 c6 -34 62 -196 78 -226 5 -10 8 -21 5
-23 -6 -7 -41 70 -67 146 -25 76 -41 155 -29 143 4 -4 10 -22 13 -40z m1897
-441 c-18 -84 -55 -123 -130 -138 l-32 -7 49 50 c26 27 63 70 81 96 19 26 36
45 38 43 2 -2 0 -22 -6 -44z"/>
<path d="M2764 2641 c-8 -18 -14 -39 -14 -45 0 -14 -75 -240 -85 -256 -11 -18
-29 15 -85 160 -28 74 -55 138 -58 142 -13 12 -185 13 -189 1 -3 -8 6 -10 26
-8 17 2 33 0 36 -4 5 -9 7 -347 3 -411 -3 -34 -4 -35 -50 -38 -63 -4 -78 13
-113 124 -16 49 -44 130 -63 179 -19 50 -40 110 -46 134 -7 25 -17 46 -22 48
-6 2 -36 -74 -69 -169 -32 -95 -73 -205 -90 -244 -29 -62 -38 -73 -69 -84 -49
-16 -55 -30 -8 -20 20 5 63 10 94 12 63 4 92 18 37 18 -55 0 -60 13 -31 83 14
34 27 64 29 66 2 2 29 6 61 8 69 4 72 2 102 -86 22 -65 19 -78 -17 -82 -7 -1
-17 -2 -22 -3 -6 0 -16 -7 -23 -14 -13 -13 1 -12 63 4 31 8 162 6 168 -3 7
-11 181 -11 181 0 0 4 -8 7 -19 7 -10 0 -30 9 -43 20 -25 19 -25 23 -26 159
-1 76 -2 143 -3 148 -1 4 -1 35 0 68 l2 60 15 -35 c9 -19 28 -71 43 -115 15
-44 50 -135 77 -202 38 -94 51 -119 61 -111 7 6 13 16 13 23 0 17 50 168 60
180 5 6 23 55 40 110 18 55 35 111 40 125 5 15 7 -20 7 -90 -1 -63 2 -159 6
-212 7 -91 7 -97 -12 -107 -11 -6 -31 -12 -45 -13 -14 -1 -28 -9 -31 -16 -4
-11 1 -13 22 -7 26 6 68 7 194 2 37 -2 46 1 44 13 -1 8 -13 17 -26 18 -33 5
-37 11 -43 62 -3 25 -8 61 -12 80 -3 19 -5 80 -4 135 2 194 5 205 59 205 13 0
21 3 17 7 -4 4 -43 8 -88 8 l-80 0 -14 -34z m-694 -154 c0 -7 11 -38 24 -69
15 -37 20 -58 12 -59 -6 0 -30 -3 -53 -5 -24 -2 -43 -1 -43 3 0 23 45 151 52
147 4 -3 8 -11 8 -17z"/>
<path d="M2030 3620 c-18 -12 -2 -12 25 0 13 6 15 9 5 9 -8 0 -22 -4 -30 -9z"/>
<path d="M3414 3233 c48 -49 100 -122 148 -208 27 -48 28 -49 22 -15 -3 19
-15 47 -25 62 -10 15 -19 31 -19 37 0 5 -3 11 -8 13 -4 2 -23 23 -42 48 -56
72 -94 110 -108 110 -8 0 7 -21 32 -47z"/>
<path d="M1145 2420 c-3 -5 -3 -14 0 -20 3 -5 1 -19 -6 -31 -6 -12 -7 -19 -2
-16 5 3 10 -26 10 -66 2 -94 5 -113 42 -232 43 -137 151 -358 167 -342 2 2
-21 54 -52 115 -31 61 -57 122 -58 135 0 14 -5 23 -10 19 -5 -3 -7 5 -4 16 4
12 3 20 -1 18 -6 -4 -23 44 -36 104 -1 3 -7 25 -14 50 -20 67 -21 78 -22 173
-1 87 -2 96 -14 77z"/>
<path d="M1360 1813 c0 -6 18 -30 41 -54 22 -24 35 -35 30 -24 -16 30 -71 91
-71 78z"/>
<path d="M1590 1514 c0 -13 68 -74 83 -74 6 0 8 1 6 3 -2 1 -23 20 -47 42 -23
21 -42 34 -42 29z"/>
</g>
</svg>
